<?xml version="1.0" encoding="UTF-8" standalone="no"?>
<svg
   viewBox="0 0 20 20"
   xml:space="preserve"
   version="1.1"
   id="svg10"
   sodipodi:docname="brush_bigl.svg"
   inkscape:version="1.1.2 (b8e25be833, 2022-02-05)"
   xmlns:inkscape="http://www.inkscape.org/namespaces/inkscape"
   xmlns:sodipodi="http://sodipodi.sourceforge.net/DTD/sodipodi-0.dtd"
   xmlns="http://www.w3.org/2000/svg"
   xmlns:svg="http://www.w3.org/2000/svg"><defs
   id="defs14" /><sodipodi:namedview
   id="namedview12"
   pagecolor="#505050"
   bordercolor="#ffffff"
   borderopacity="1"
   inkscape:pageshadow="0"
   inkscape:pageopacity="0"
   inkscape:pagecheckerboard="1"
   showgrid="false"
   inkscape:zoom="35.95"
   inkscape:cx="9.2489569"
   inkscape:cy="10"
   inkscape:window-width="1675"
   inkscape:window-height="1152"
   inkscape:window-x="309"
   inkscape:window-y="336"
   inkscape:window-maximized="0"
   inkscape:current-layer="layer2" />
    <g
   inkscape:groupmode="layer"
   id="layer2"
   inkscape:label="Layer 2"
   style="display:inline"><g
     fill="#ffffff"
     id="g8"
     inkscape:label="#g8"
     style="display:inline"
     transform="translate(3.6995828,0.41724618)">
        <path
   fill="#ffffff"
   d="m -242.002,1242.992 c -0.583,0 -1.109,0.154 -1.477,0.522 -0.367,0.367 -0.521,0.895 -0.521,1.478 V 1248 h 6 v -2.486 c -0.002,-0.337 0.178,-0.728 0.475,-1.026 0.296,-0.297 0.69,-0.482 1.029,-0.484 0.658,-0.012 0.654,-0.994 -0.004,-1 h -0.004 -2.496 v 0.486 c 0.01,0.676 -1.01,0.676 -1,0 v -0.488 h -1 v 0.49 c 0.01,0.676 -1.01,0.676 -1,0 V 1243 h -0.002 z M -244,1249 v 0.5 c 0,0.252 0.164,0.498 0.5,0.486 l 1.502,0.01 -0.002,5.994 c -0.02,1.353 2.02,1.353 2,0 l -0.002,-5.994 1.502,-0.01 c 0.321,0 0.5,-0.246 0.5,-0.486 v -0.5 z"
   transform="translate(247,-1239.995)"
   id="path2"
   style="display:inline" />
        <g
   id="g6"
   style="display:inline">
            
        </g>
    </g></g>
</svg>
