<?xml version="1.0" encoding="UTF-8" standalone="no"?>
<!-- Created with Inkscape (http://www.inkscape.org/) -->

<svg
   width="32"
   height="32"
   viewBox="0 0 8.4666667 8.4666667"
   version="1.1"
   id="svg5"
   xmlns="http://www.w3.org/2000/svg"
   xmlns:svg="http://www.w3.org/2000/svg">
  <defs
     id="defs2" />
  <g
     id="layer2"
     style="display:inline">
    <g
       id="path2321"
       style="opacity:1">
      <path
         style="baseline-shift:baseline;display:inline;overflow:visible;vector-effect:none;fill:#ffffff;stroke-linecap:round;stroke-linejoin:round;enable-background:accumulate;stop-color:#000000;stop-opacity:1"
         d="M 5.2302217,2.319805 4.2947783,1.3843616"
         id="path13" />
      <path
         style="baseline-shift:baseline;display:inline;overflow:visible;vector-effect:none;fill:#ffffff;stroke-linecap:round;stroke-linejoin:round;enable-background:accumulate;stop-color:#000000;stop-opacity:1"
         d="m 4.0605469,1.1503906 a 0.33072901,0.33072901 0 0 0 0,0.46875 l 0.9355468,0.9335938 a 0.33072901,0.33072901 0 0 0 0.46875,0 0.33072901,0.33072901 0 0 0 0,-0.4667969 L 4.5292969,1.1503906 a 0.33072901,0.33072901 0 0 0 -0.46875,0 z"
         id="path14" />
    </g>
    <g
       id="path3294"
       style="opacity:1">
      <path
         style="baseline-shift:baseline;display:inline;overflow:visible;vector-effect:none;fill:#ffffff;stroke-linecap:round;stroke-linejoin:round;enable-background:accumulate;stop-color:#000000;stop-opacity:1"
         d="M 4.1718884,7.082305 3.236445,6.1468617"
         id="path11" />
      <path
         style="baseline-shift:baseline;display:inline;overflow:visible;vector-effect:none;fill:#ffffff;stroke-linecap:round;stroke-linejoin:round;enable-background:accumulate;stop-color:#000000;stop-opacity:1"
         d="m 3.0019531,5.9121094 a 0.33072901,0.33072901 0 0 0 0,0.46875 L 3.9375,7.3164062 a 0.33072901,0.33072901 0 0 0 0.46875,0 0.33072901,0.33072901 0 0 0 0,-0.46875 L 3.4707031,5.9121094 a 0.33072901,0.33072901 0 0 0 -0.46875,0 z"
         id="path12" />
    </g>
    <g
       id="path3296"
       style="opacity:1">
      <path
         style="baseline-shift:baseline;display:inline;overflow:visible;vector-effect:none;fill:#ffffff;stroke-linecap:round;stroke-linejoin:round;enable-background:accumulate;stop-color:#000000;stop-opacity:1"
         d="M 7.0823051,4.1718884 6.1468617,3.236445"
         id="path9" />
      <path
         style="baseline-shift:baseline;display:inline;overflow:visible;vector-effect:none;fill:#ffffff;stroke-linecap:round;stroke-linejoin:round;enable-background:accumulate;stop-color:#000000;stop-opacity:1"
         d="m 5.9121094,3.0019531 a 0.33072901,0.33072901 0 0 0 0,0.46875 L 6.8476562,4.40625 a 0.33072901,0.33072901 0 0 0 0.46875,0 0.33072901,0.33072901 0 0 0 0,-0.46875 L 6.3808594,3.0019531 a 0.33072901,0.33072901 0 0 0 -0.46875,0 z"
         id="path10" />
    </g>
    <g
       id="path3298"
       style="opacity:1">
      <path
         style="baseline-shift:baseline;display:inline;overflow:visible;vector-effect:none;fill:#ffffff;stroke-linecap:round;stroke-linejoin:round;enable-background:accumulate;stop-color:#000000;stop-opacity:1"
         d="M 2.319805,5.225521 C 1.3328236,4.2740745 1.6946076,4.6004061 1.3843616,4.2900776"
         id="path7" />
      <path
         style="baseline-shift:baseline;display:inline;overflow:visible;vector-effect:none;fill:#ffffff;stroke-linecap:round;stroke-linejoin:round;enable-background:accumulate;stop-color:#000000;stop-opacity:1"
         d="m 1.1503906,4.0566406 a 0.33072901,0.33072901 0 0 0 0,0.4667969 c 0.3013175,0.3013976 -0.049398,-0.013796 0.9394532,0.9394531 a 0.33072901,0.33072901 0 0 0 0.46875,-0.00781 0.33072901,0.33072901 0 0 0 -0.00977,-0.4667969 C 1.5637163,4.038637 1.9383151,4.3759 1.6191406,4.0566406 a 0.33072901,0.33072901 0 0 0 -0.46875,0 z"
         id="path8" />
    </g>
    <g
       id="path16"
       style="opacity:1">
      <path
         style="baseline-shift:baseline;display:inline;overflow:visible;vector-effect:none;fill:#ffffff;stroke-linecap:round;stroke-linejoin:round;enable-background:accumulate;stop-color:#000000;stop-opacity:1"
         d="M 2.8500627,2.8478783 C 1.8608647,1.8987364 2.2234098,2.2242224 1.9124373,1.9146218"
         id="path5" />
      <path
         style="baseline-shift:baseline;display:inline;overflow:visible;vector-effect:none;fill:#ffffff;stroke-linecap:round;stroke-linejoin:round;enable-background:accumulate;stop-color:#000000;stop-opacity:1"
         d="m 2.1464844,1.6796875 a 0.33072901,0.33072901 0 0 0 -0.46875,0.00195 0.33072901,0.33072901 0 0 0 0.00195,0.4667969 c 0.3020246,0.3006921 -0.049666,-0.01344 0.9414063,0.9375 A 0.33072901,0.33072901 0 0 0 3.0878906,3.0761719 0.33072901,0.33072901 0 0 0 3.078125,2.609375 C 2.0908009,1.6620311 2.4664048,1.9981966 2.1464844,1.6796875 Z"
         id="path6" />
    </g>
    <g
       id="path642"
       style="opacity:1">
      <path
         style="baseline-shift:baseline;display:inline;overflow:visible;vector-effect:none;fill:#ffffff;stroke-linecap:round;stroke-linejoin:round;enable-background:accumulate;stop-color:#000000;stop-opacity:1"
         d="M 6.5531384,6.5531384 5.617695,5.617695"
         id="path3" />
      <path
         style="baseline-shift:baseline;display:inline;overflow:visible;vector-effect:none;fill:#ffffff;stroke-linecap:round;stroke-linejoin:round;enable-background:accumulate;stop-color:#000000;stop-opacity:1"
         d="m 5.3847656,5.3847656 a 0.33072901,0.33072901 0 0 0 0,0.4667969 l 0.9335938,0.9355469 a 0.33072901,0.33072901 0 0 0 0.46875,0 0.33072901,0.33072901 0 0 0 0,-0.46875 L 5.8515625,5.3847656 a 0.33072901,0.33072901 0 0 0 -0.4667969,0 z"
         id="path4" />
    </g>
    <g
       id="path3558"
       style="opacity:1">
      <path
         style="baseline-shift:baseline;display:inline;overflow:visible;vector-effect:none;fill:#ffffff;stroke-linecap:round;stroke-linejoin:round;enable-background:accumulate;stop-color:#000000;stop-opacity:1"
         d="M 4.702146,4.6999616 C 3.712948,3.7508197 4.0754931,4.0763057 3.7645206,3.7667051"
         id="path1" />
      <path
         style="baseline-shift:baseline;display:inline;overflow:visible;vector-effect:none;fill:#ffffff;stroke-linecap:round;stroke-linejoin:round;enable-background:accumulate;stop-color:#000000;stop-opacity:1"
         d="m 3.5292969,3.5332031 a 0.33072901,0.33072901 0 0 0 0.00195,0.46875 c 0.3020246,0.3006922 -0.049666,-0.01344 0.9414062,0.9375 a 0.33072901,0.33072901 0 0 0 0.46875,-0.00977 0.33072901,0.33072901 0 0 0 -0.00977,-0.46875 C 3.9443166,3.5135936 4.3179673,3.8517122 3.9980469,3.5332031 a 0.33072901,0.33072901 0 0 0 -0.46875,0 z"
         id="path2" />
    </g>
  </g>
</svg>
