<?xml version="1.0" encoding="UTF-8" standalone="no"?>
<!-- Created with Inkscape (http://www.inkscape.org/) -->

<svg
   width="16"
   height="16"
   viewBox="0 0 16 16"
   version="1.1"
   id="svg5"
   xmlns:xlink="http://www.w3.org/1999/xlink"
   xmlns="http://www.w3.org/2000/svg"
   xmlns:svg="http://www.w3.org/2000/svg">
  <defs
     id="defs2">
    <linearGradient
       id="swatch6">
      <stop
         style="stop-color:#ffffff;stop-opacity:1;"
         offset="0"
         id="stop6" />
    </linearGradient>
    <linearGradient
       xlink:href="#swatch6"
       id="linearGradient6"
       x1="1.3496089"
       y1="8.0000002"
       x2="14.650391"
       y2="8.0000002"
       gradientUnits="userSpaceOnUse" />
  </defs>
  <g
     id="layer2">
    <path
       id="path3472"
       style="baseline-shift:baseline;display:inline;overflow:visible;vector-effect:none;fill:url(#linearGradient6);stroke-linecap:round;stroke-linejoin:round;enable-background:accumulate;stop-color:#000000;stop-opacity:1;opacity:1;fill-opacity:1"
       d="M 5.5 1.3496094 A 0.15001501 0.15001501 0 0 0 5.3945312 1.3945312 L 3.4082031 3.3808594 A 0.15000001 0.15000001 0 0 0 3.3808594 3.4082031 L 1.4082031 5.3808594 A 0.15000001 0.15000001 0 0 0 1.3945312 5.3925781 L 1.3945312 5.3945312 A 0.15001501 0.15001501 0 0 0 1.3808594 5.4082031 A 0.15000001 0.15000001 0 0 0 1.3613281 5.4414062 A 0.15001501 0.15001501 0 0 0 1.3496094 5.5 L 1.3496094 10 L 1.3496094 14.5 A 0.15001501 0.15001501 0 0 0 1.5 14.650391 L 6 14.650391 L 10.5 14.650391 A 0.15001501 0.15001501 0 0 0 10.558594 14.638672 A 0.15000001 0.15000001 0 0 0 10.591797 14.619141 A 0.15001501 0.15001501 0 0 0 10.605469 14.605469 L 10.619141 14.591797 L 12.591797 12.619141 A 0.15000001 0.15000001 0 0 0 12.619141 12.591797 L 14.605469 10.605469 A 0.15001501 0.15001501 0 0 0 14.650391 10.5 L 14.650391 1.5 A 0.15001501 0.15001501 0 0 0 14.648438 1.4804688 A 0.15001501 0.15001501 0 0 0 14.644531 1.4609375 A 0.15001501 0.15001501 0 0 0 14.619141 1.4101562 A 0.15000001 0.15000001 0 0 0 14.619141 1.4082031 A 0.15001501 0.15001501 0 0 0 14.591797 1.3808594 A 0.15001501 0.15001501 0 0 0 14.589844 1.3808594 A 0.15001501 0.15001501 0 0 0 14.539062 1.3554688 A 0.15000001 0.15000001 0 0 0 14.519531 1.3515625 A 0.15001501 0.15001501 0 0 0 14.5 1.3496094 L 5.5 1.3496094 z M 5.5625 1.6503906 L 9.6386719 1.6503906 L 7.9394531 3.3496094 L 3.8632812 3.3496094 L 5.5625 1.6503906 z M 10.060547 1.6503906 L 14.138672 1.6503906 L 12.439453 3.3496094 L 8.3613281 3.3496094 L 10.060547 1.6503906 z M 14.349609 1.8613281 L 14.349609 5.9394531 L 12.650391 7.6386719 L 12.650391 3.5605469 L 14.349609 1.8613281 z M 3.5625 3.6503906 L 7.6386719 3.6503906 L 5.9394531 5.3496094 L 1.8632812 5.3496094 L 3.5625 3.6503906 z M 8.0625 3.6503906 L 12.138672 3.6503906 L 10.439453 5.3496094 L 6.3632812 5.3496094 L 8.0625 3.6503906 z M 12.349609 3.8613281 L 12.349609 7.9375 L 10.650391 9.6367188 L 10.650391 5.5605469 L 12.349609 3.8613281 z M 1.6503906 5.6503906 L 5.8496094 5.6503906 L 5.8496094 9.8496094 L 1.6503906 9.8496094 L 1.6503906 5.6503906 z M 6.1503906 5.6503906 L 10.349609 5.6503906 L 10.349609 9.8496094 L 6.1503906 9.8496094 L 6.1503906 5.6503906 z M 14.349609 6.3613281 L 14.349609 10.4375 L 12.650391 12.136719 L 12.650391 8.0605469 L 14.349609 6.3613281 z M 12.349609 8.3613281 L 12.349609 12.4375 L 10.650391 14.136719 L 10.650391 10.060547 L 12.349609 8.3613281 z M 1.6503906 10.150391 L 5.8496094 10.150391 L 5.8496094 14.349609 L 1.6503906 14.349609 L 1.6503906 10.150391 z M 6.1503906 10.150391 L 10.349609 10.150391 L 10.349609 14.349609 L 6.1503906 14.349609 L 6.1503906 10.150391 z " />
  </g>
</svg>
