<?xml version="1.0" encoding="UTF-8" standalone="no"?>
<!-- Created with Inkscape (http://www.inkscape.org/) -->

<svg
   width="32"
   height="32"
   viewBox="0 0 8.4666667 8.4666667"
   version="1.1"
   id="svg5"
   xmlns="http://www.w3.org/2000/svg"
   xmlns:svg="http://www.w3.org/2000/svg">
  <defs
     id="defs2" />
  <g
     id="layer2"
     style="display:inline">
    <path
       id="path1"
       style="display:inline;opacity:1;baseline-shift:baseline;overflow:visible;vector-effect:none;fill:#ffffff;stroke-linecap:round;stroke-linejoin:round;enable-background:accumulate;stop-color:#000000;stop-opacity:1"
       d="M 4.2322998 0.52916667 A 0.2645835 0.2645835 0 0 0 3.96875 0.79271647 L 3.96875 3.2091065 C 3.5139689 3.3269346 3.1760335 3.7418912 3.1760335 4.2322998 C 3.1760335 4.4280041 3.2296801 4.6118643 3.3233114 4.7697347 L 1.6133382 6.4786743 A 0.2645835 0.2645835 0 0 0 1.6133382 6.8533285 A 0.2645835 0.2645835 0 0 0 1.9885091 6.8533285 L 3.696932 5.1438721 C 3.8542355 5.237348 4.0371023 5.2911499 4.2322998 5.2911499 C 4.4278707 5.2911499 4.6119365 5.237162 4.7697347 5.1433553 L 6.4786743 6.8533285 A 0.2645835 0.2645835 0 0 0 6.8533285 6.8533285 A 0.2645835 0.2645835 0 0 0 6.8533285 6.4786743 L 5.1433553 4.7697347 C 5.237162 4.6119365 5.2911499 4.4278707 5.2911499 4.2322998 C 5.2911499 3.7425467 4.9522151 3.3280866 4.4979167 3.2096232 L 4.4979167 0.79271647 A 0.2645835 0.2645835 0 0 0 4.2322998 0.52916667 z " />
  </g>
</svg>
