<?xml version="1.0" encoding="UTF-8" standalone="no"?>
<!-- Created with Inkscape (http://www.inkscape.org/) -->

<svg
   width="32"
   height="32"
   viewBox="0 0 8.4666667 8.4666667"
   version="1.1"
   id="svg5"
   xmlns="http://www.w3.org/2000/svg"
   xmlns:svg="http://www.w3.org/2000/svg">
  <defs
     id="defs2" />
  <g
     id="layer2">
    <g
       id="path2286"
       style="opacity:1">
      <path
         style="baseline-shift:baseline;display:inline;overflow:visible;vector-effect:none;fill:#ffffff;stroke-linecap:round;stroke-linejoin:round;enable-background:accumulate;stop-color:#000000;stop-opacity:1"
         d="m 5.0270831,4.2333331 a 0.79374999,0.79374999 0 0 1 -0.79375,0.79375 0.79374999,0.79374999 0 0 1 -0.79375,-0.79375 0.79374999,0.79374999 0 0 1 0.79375,-0.79375 0.79374999,0.79374999 0 0 1 0.79375,0.79375 z"
         id="path1" />
      <path
         style="baseline-shift:baseline;display:inline;overflow:visible;vector-effect:none;fill:#ffffff;stroke-linecap:round;stroke-linejoin:round;enable-background:accumulate;stop-color:#000000;stop-opacity:1"
         d="m 4.2324219,2.9101563 c -0.7243581,-1e-7 -1.3222657,0.5979075 -1.3222656,1.3222656 -1e-7,0.724358 0.5979075,1.3242187 1.3222656,1.3242187 0.724358,0 1.3242187,-0.5998607 1.3242187,-1.3242187 0,-0.7243581 -0.5998607,-1.3222657 -1.3242187,-1.3222656 z m 0,1.0585937 c 0.152394,0 0.265625,0.1112779 0.265625,0.2636719 0,0.152394 -0.113231,0.265625 -0.265625,0.265625 -0.152394,0 -0.2636719,-0.113231 -0.2636719,-0.265625 0,-0.152394 0.1112779,-0.2636719 0.2636719,-0.2636719 z"
         id="path2" />
    </g>
    <g
       id="path2321"
       style="opacity:1">
      <path
         style="baseline-shift:baseline;display:inline;overflow:visible;vector-effect:none;fill:#ffffff;stroke-linecap:round;stroke-linejoin:round;enable-background:accumulate;stop-color:#000000;stop-opacity:1"
         d="M 4.2333333,2.1166667 V 0.79374996"
         id="path18" />
      <path
         style="baseline-shift:baseline;display:inline;overflow:visible;vector-effect:none;fill:#ffffff;stroke-linecap:round;stroke-linejoin:round;enable-background:accumulate;stop-color:#000000;stop-opacity:1"
         d="M 4.2324219,0.46289063 A 0.33072916,0.33072916 0 0 0 3.9023438,0.79296875 V 2.1171875 A 0.33072916,0.33072916 0 0 0 4.2324219,2.4472656 0.33072916,0.33072916 0 0 0 4.5644531,2.1171875 V 0.79296875 A 0.33072916,0.33072916 0 0 0 4.2324219,0.46289063 Z"
         id="path19" />
    </g>
    <g
       id="path3294"
       style="opacity:1">
      <path
         style="baseline-shift:baseline;display:inline;overflow:visible;vector-effect:none;fill:#ffffff;stroke-linecap:round;stroke-linejoin:round;enable-background:accumulate;stop-color:#000000;stop-opacity:1"
         d="M 4.2333335,7.6729169 V 6.3500002"
         id="path15" />
      <path
         style="baseline-shift:baseline;display:inline;overflow:visible;vector-effect:none;fill:#ffffff;stroke-linecap:round;stroke-linejoin:round;enable-background:accumulate;stop-color:#000000;stop-opacity:1"
         d="M 4.2324219,6.0195312 A 0.33072916,0.33072916 0 0 0 3.9023438,6.3496094 V 7.6738281 A 0.33072916,0.33072916 0 0 0 4.2324219,8.0039063 0.33072916,0.33072916 0 0 0 4.5644531,7.6738281 V 6.3496094 A 0.33072916,0.33072916 0 0 0 4.2324219,6.0195312 Z"
         id="path17" />
    </g>
    <g
       id="path3296"
       style="opacity:1">
      <path
         style="baseline-shift:baseline;display:inline;overflow:visible;vector-effect:none;fill:#ffffff;stroke-linecap:round;stroke-linejoin:round;enable-background:accumulate;stop-color:#000000;stop-opacity:1"
         d="M 7.6729165,4.2333332 H 6.3499997"
         id="path13" />
      <path
         style="baseline-shift:baseline;display:inline;overflow:visible;vector-effect:none;fill:#ffffff;stroke-linecap:round;stroke-linejoin:round;enable-background:accumulate;stop-color:#000000;stop-opacity:1"
         d="M 6.3496094,3.9023438 A 0.33072916,0.33072916 0 0 0 6.0195312,4.2324219 0.33072916,0.33072916 0 0 0 6.3496094,4.5644531 H 7.6738281 A 0.33072916,0.33072916 0 0 0 8.0039063,4.2324219 0.33072916,0.33072916 0 0 0 7.6738281,3.9023438 Z"
         id="path14" />
    </g>
    <g
       id="path3298"
       style="opacity:1">
      <path
         style="baseline-shift:baseline;display:inline;overflow:visible;vector-effect:none;fill:#ffffff;stroke-linecap:round;stroke-linejoin:round;enable-background:accumulate;stop-color:#000000;stop-opacity:1"
         d="m 2.1166665,4.2221689 c -1.37067559,0.025127 -0.8841043,5.84e-5 -1.32291679,0"
         id="path11" />
      <path
         style="baseline-shift:baseline;display:inline;overflow:visible;vector-effect:none;fill:#ffffff;stroke-linecap:round;stroke-linejoin:round;enable-background:accumulate;stop-color:#000000;stop-opacity:1"
         d="M 0.79296875,3.890625 A 0.33072916,0.33072916 0 0 0 0.46289063,4.2226562 0.33072916,0.33072916 0 0 0 0.79296875,4.5527344 c 0.42618395,5.67e-5 -0.0431938,0.025175 1.33007815,0 A 0.33072916,0.33072916 0 0 0 2.4472656,4.2167969 0.33072916,0.33072916 0 0 0 2.1113281,3.890625 c -1.36807918,0.025079 -0.8669183,6.01e-5 -1.31835935,0 z"
         id="path12" />
    </g>
    <g
       id="path16"
       style="opacity:1">
      <path
         style="baseline-shift:baseline;display:inline;overflow:visible;vector-effect:none;fill:#ffffff;stroke-linecap:round;stroke-linejoin:round;enable-background:accumulate;stop-color:#000000;stop-opacity:1"
         d="M 2.7410129,2.7322062 C 1.7518149,1.7830643 2.11436,2.1085503 1.8033875,1.7989497"
         id="path9" />
      <path
         style="baseline-shift:baseline;display:inline;overflow:visible;vector-effect:none;fill:#ffffff;stroke-linecap:round;stroke-linejoin:round;enable-background:accumulate;stop-color:#000000;stop-opacity:1"
         d="m 2.0371094,1.5644531 a 0.33072916,0.33072916 0 0 0 -0.46875,0.00195 0.33072916,0.33072916 0 0 0 0.00195,0.4667969 c 0.3020246,0.3006922 -0.049666,-0.01344 0.9414063,0.9375 a 0.33072916,0.33072916 0 0 0 0.46875,-0.00977 0.33072916,0.33072916 0 0 0 -0.00977,-0.4667969 C 1.9833791,1.5467968 2.3570298,1.8829622 2.0371094,1.5644531 Z"
         id="path10" />
    </g>
    <g
       id="path640"
       style="opacity:1">
      <path
         style="baseline-shift:baseline;display:inline;overflow:visible;vector-effect:none;fill:#ffffff;stroke-linecap:round;stroke-linejoin:round;enable-background:accumulate;stop-color:#000000;stop-opacity:1"
         d="M 5.7300426,2.736624 6.665486,1.8011806"
         id="path7" />
      <path
         style="baseline-shift:baseline;display:inline;overflow:visible;vector-effect:none;fill:#ffffff;stroke-linecap:round;stroke-linejoin:round;enable-background:accumulate;stop-color:#000000;stop-opacity:1"
         d="M 6.4316406,1.5664062 5.4960937,2.5019531 a 0.33072916,0.33072916 0 0 0 0,0.46875 0.33072916,0.33072916 0 0 0 0.46875,0 L 6.8984375,2.0351563 a 0.33072916,0.33072916 0 0 0 0,-0.4687501 0.33072916,0.33072916 0 0 0 -0.4667969,0 z"
         id="path8" />
    </g>
    <g
       id="path642"
       style="opacity:1">
      <path
         style="baseline-shift:baseline;display:inline;overflow:visible;vector-effect:none;fill:#ffffff;stroke-linecap:round;stroke-linejoin:round;enable-background:accumulate;stop-color:#000000;stop-opacity:1"
         d="M 6.6654859,6.6654858 5.7300425,5.7300424"
         id="path5" />
      <path
         style="baseline-shift:baseline;display:inline;overflow:visible;vector-effect:none;fill:#ffffff;stroke-linecap:round;stroke-linejoin:round;enable-background:accumulate;stop-color:#000000;stop-opacity:1"
         d="m 5.4960937,5.4960937 a 0.33072916,0.33072916 0 0 0 0,0.46875 l 0.9355469,0.9335938 a 0.33072916,0.33072916 0 0 0 0.4667969,0 0.33072916,0.33072916 0 0 0 0,-0.4667969 L 5.9648437,5.4960937 a 0.33072916,0.33072916 0 0 0 -0.46875,0 z"
         id="path6" />
    </g>
    <g
       id="path644"
       style="opacity:1">
      <path
         style="baseline-shift:baseline;display:inline;overflow:visible;vector-effect:none;fill:#ffffff;stroke-linecap:round;stroke-linejoin:round;enable-background:accumulate;stop-color:#000000;stop-opacity:1"
         d="M 1.8011806,6.6654862 2.736624,5.7300428"
         id="path3" />
      <path
         style="baseline-shift:baseline;display:inline;overflow:visible;vector-effect:none;fill:#ffffff;stroke-linecap:round;stroke-linejoin:round;enable-background:accumulate;stop-color:#000000;stop-opacity:1"
         d="M 2.5019531,5.4960937 1.5664062,6.4316406 a 0.33072916,0.33072916 0 0 0 0,0.4667969 0.33072916,0.33072916 0 0 0 0.4687501,0 L 2.9707031,5.9648437 a 0.33072916,0.33072916 0 0 0 0,-0.46875 0.33072916,0.33072916 0 0 0 -0.46875,0 z"
         id="path4" />
    </g>
  </g>
</svg>
