<?xml version="1.0" encoding="UTF-8" standalone="no"?>
<!-- Created with Inkscape (http://www.inkscape.org/) -->

<svg
   width="32"
   height="32"
   viewBox="0 0 8.4666667 8.4666667"
   version="1.1"
   id="svg5"
   xmlns="http://www.w3.org/2000/svg"
   xmlns:svg="http://www.w3.org/2000/svg">
  <defs
     id="defs2">
    <linearGradient
       id="linearGradient1671">
      <stop
         style="stop-color:#000000;stop-opacity:1;"
         offset="0"
         id="stop1669" />
    </linearGradient>
  </defs>
  <g
     id="layer5"
     style="display:inline">
    <path
       id="path5105"
       style="baseline-shift:baseline;display:inline;overflow:visible;vector-effect:none;fill:#ffffff;stroke-linecap:round;enable-background:accumulate;stop-color:#000000;stop-opacity:1;opacity:1"
       d="M 4.2324219,4.1230469 2.9882813,5.3691406 a 0.2645835,0.2645835 0 0 0 0,0.375 0.2645835,0.2645835 0 0 0 0.3730468,0 L 4.234375,4.8710937 5.1054687,5.7441406 a 0.2645835,0.2645835 0 0 0 0.3730469,0 0.2645835,0.2645835 0 0 0 0,-0.375 z m 0,0.109375 A 0.2645835,0.2645835 0 0 0 3.96875,4.4980469 V 7.9375 A 0.2645835,0.2645835 0 0 0 4.2324219,8.2011719 0.2645835,0.2645835 0 0 0 4.4980469,7.9375 V 4.4980469 A 0.2645835,0.2645835 0 0 0 4.2324219,4.2324219 Z M 0.89453125,0.52929687 c -0.19822001,10e-9 -0.36523437,0.16701437 -0.36523438,0.36523438 V 3.3398438 c 10e-9,0.19822 0.16701437,0.3652343 0.36523438,0.3652343 H 7.5722656 c 0.19822,0 0.3652344,-0.1670143 0.3652344,-0.3652343 V 0.89453125 C 7.9375,0.69631124 7.7704856,0.52929688 7.5722656,0.52929687 Z M 1.0585937,1.0585937 H 7.4082031 V 3.1757813 H 1.0585937 Z" />
  </g>
</svg>
