<?xml version="1.0" encoding="UTF-8" standalone="no"?>
<!-- Created with Inkscape (http://www.inkscape.org/) -->

<svg
   width="32"
   height="32"
   viewBox="0 0 8.4666667 8.4666667"
   version="1.1"
   id="svg5"
   xmlns="http://www.w3.org/2000/svg"
   xmlns:svg="http://www.w3.org/2000/svg">
  <defs
     id="defs2">
    <linearGradient
       id="linearGradient1671">
      <stop
         style="stop-color:#000000;stop-opacity:1;"
         offset="0"
         id="stop1669" />
    </linearGradient>
  </defs>
  <g
     id="layer3">
    <path
       id="path15"
       style="opacity:1;baseline-shift:baseline;display:inline;overflow:visible;vector-effect:none;fill:#ffffff;enable-background:accumulate;stop-color:#000000;stop-opacity:1"
       d="M 4.2322998 0.078031413 L 3.2519979 1.0588501 A 0.2645835 0.2645835 0 0 0 3.2519979 1.4314372 A 0.2645835 0.2645835 0 0 0 3.6271688 1.4314372 L 3.96875 1.089856 L 3.96875 2.7770915 L 2.7770915 2.7770915 L 2.7770915 3.96875 L 1.089856 3.96875 L 1.4314372 3.6271688 A 0.2645835 0.2645835 0 0 0 1.4314372 3.2519979 A 0.2645835 0.2645835 0 0 0 1.0588501 3.2519979 L 0.078031413 4.2322998 L 1.0588501 5.2146688 A 0.2645835 0.2645835 0 0 0 1.4314372 5.2146688 A 0.2645835 0.2645835 0 0 0 1.4314372 4.8400147 L 1.0883057 4.4979167 L 2.7770915 4.4979167 L 2.7770915 5.6895752 L 3.96875 5.6895752 L 3.96875 7.3752604 L 3.6271688 7.0331625 A 0.2645835 0.2645835 0 0 0 3.2519979 7.0331625 A 0.2645835 0.2645835 0 0 0 3.2519979 7.4083334 L 4.2322998 8.3886353 L 5.2146688 7.4083334 A 0.2645835 0.2645835 0 0 0 5.2146688 7.0331625 A 0.2645835 0.2645835 0 0 0 4.8400147 7.0331625 L 4.4979167 7.376294 L 4.4979167 5.6895752 L 5.6895752 5.6895752 L 5.6895752 4.4979167 L 7.2987793 4.4979167 L 6.9571981 4.8400147 A 0.2645835 0.2645835 0 0 0 6.9571981 5.2146688 A 0.2645835 0.2645835 0 0 0 7.3303019 5.2146688 L 8.3126709 4.2322998 L 7.3303019 3.2519979 A 0.2645835 0.2645835 0 0 0 6.9571981 3.2519979 A 0.2645835 0.2645835 0 0 0 6.9571981 3.6271688 L 7.2977458 3.96875 L 5.6895752 3.96875 L 5.6895752 2.7770915 L 4.4979167 2.7770915 L 4.4979167 1.0883057 L 4.8400147 1.4314372 A 0.2645835 0.2645835 0 0 0 5.2146688 1.4314372 A 0.2645835 0.2645835 0 0 0 5.2146688 1.0588501 L 4.2322998 0.078031413 z " />
  </g>
</svg>
