<?xml version="1.0" encoding="UTF-8" standalone="no"?>
<!-- Created with Inkscape (http://www.inkscape.org/) -->

<svg
   width="32"
   height="32"
   viewBox="0 0 8.4666667 8.4666667"
   version="1.1"
   id="svg5"
   xmlns="http://www.w3.org/2000/svg"
   xmlns:svg="http://www.w3.org/2000/svg">
  <defs
     id="defs2" />
  <g
     id="layer2">
    <g
       id="path2286"
       style="opacity:1">
      <path
         style="baseline-shift:baseline;display:inline;overflow:visible;vector-effect:none;fill:#ffffff;stroke-linecap:round;stroke-linejoin:round;enable-background:accumulate;stop-color:#000000;stop-opacity:1"
         d="M 2.3169975,1.8869374 A 1.4883935,1.4883935 0 0 1 0.82860398,3.3753309 V 1.8869374 Z"
         id="path1" />
      <path
         style="baseline-shift:baseline;display:inline;overflow:visible;vector-effect:none;fill:#ffffff;stroke-linecap:round;stroke-linejoin:round;enable-background:accumulate;stop-color:#000000;stop-opacity:1"
         d="M 0.828125,1.3574219 A 0.52921795,0.52921795 0 0 0 0.29882813,1.8867187 V 3.375 A 0.52921795,0.52921795 0 0 0 0.828125,3.9042969 c 1.1079991,0 2.0175781,-0.9095791 2.0175781,-2.0175782 A 0.52921795,0.52921795 0 0 0 2.3164063,1.3574219 Z M 1.3574219,2.4160156 H 1.5722656 C 1.5092216,2.505898 1.4473043,2.5678153 1.3574219,2.6308594 Z"
         id="path2" />
    </g>
    <g
       id="path3294"
       style="opacity:1">
      <path
         style="baseline-shift:baseline;display:inline;overflow:visible;vector-effect:none;fill:#ffffff;stroke-linecap:round;stroke-linejoin:round;enable-background:accumulate;stop-color:#000000;stop-opacity:1"
         d="M 1.0583333,7.7170139 V 5.5121529"
         id="path7" />
      <path
         style="baseline-shift:baseline;display:inline;overflow:visible;vector-effect:none;fill:#ffffff;stroke-linecap:round;stroke-linejoin:round;enable-background:accumulate;stop-color:#000000;stop-opacity:1"
         d="M 1.0585937,4.9824219 A 0.52916503,0.52916503 0 0 0 0.52929687,5.5117187 V 7.7167969 A 0.52916503,0.52916503 0 0 0 1.0585937,8.2460938 0.52916503,0.52916503 0 0 0 1.5878906,7.7167969 V 5.5117187 A 0.52916503,0.52916503 0 0 0 1.0585937,4.9824219 Z"
         id="path8" />
    </g>
    <g
       id="path3296"
       style="opacity:1">
      <path
         style="baseline-shift:baseline;display:inline;overflow:visible;vector-effect:none;fill:#ffffff;stroke-linecap:round;stroke-linejoin:round;enable-background:accumulate;stop-color:#000000;stop-opacity:1"
         d="M 6.6586807,2.1166667 H 4.4538194"
         id="path5" />
      <path
         style="baseline-shift:baseline;display:inline;overflow:visible;vector-effect:none;fill:#ffffff;stroke-linecap:round;stroke-linejoin:round;enable-background:accumulate;stop-color:#000000;stop-opacity:1"
         d="M 4.453125,1.5878906 A 0.5291667,0.5291667 0 0 0 3.9238281,2.1171875 0.5291667,0.5291667 0 0 0 4.453125,2.6464844 H 6.6582031 A 0.5291667,0.5291667 0 0 0 7.1875,2.1171875 0.5291667,0.5291667 0 0 0 6.6582031,1.5878906 Z"
         id="path6" />
    </g>
    <g
       id="path642"
       style="opacity:1">
      <path
         style="baseline-shift:baseline;display:inline;overflow:visible;vector-effect:none;fill:#ffffff;stroke-linecap:round;stroke-linejoin:round;enable-background:accumulate;stop-color:#000000;stop-opacity:1"
         d="M 5.0128695,6.0712028 3.4537972,4.5121305"
         id="path3" />
      <path
         style="baseline-shift:baseline;display:inline;overflow:visible;vector-effect:none;fill:#ffffff;stroke-linecap:round;stroke-linejoin:round;enable-background:accumulate;stop-color:#000000;stop-opacity:1"
         d="m 3.453125,3.9824219 a 0.52916503,0.52916503 0 0 0 -0.3730469,0.15625 0.52916503,0.52916503 0 0 0 0,0.7480468 l 1.5585938,1.5585938 a 0.52916503,0.52916503 0 0 0 0.7480468,0 0.52916503,0.52916503 0 0 0 0,-0.7480469 L 3.828125,4.1386719 a 0.52916503,0.52916503 0 0 0 -0.375,-0.15625 z"
         id="path4" />
    </g>
  </g>
</svg>
